<svg 
    xmlns="http://www.w3.org/2000/svg" viewBox="0 0 1280 720" width="1280" height="720">
    <defs>
        <linearGradient id="bg-gradient" x1="0%" y1="0%" x2="100%" y2="100%">
            <stop offset="0%" style="stop-color:#1E293B;stop-opacity:1" />
            <stop offset="100%" style="stop-color:#334155;stop-opacity:1" />
        </linearGradient>
        <linearGradient id="accent-gradient" x1="0%" y1="0%" x2="100%" y2="100%">
            <stop offset="0%" style="stop-color:#3B82F6;stop-opacity:1" />
            <stop offset="100%" style="stop-color:#10B981;stop-opacity:1" />
        </linearGradient>
    </defs>
    <rect width="1280" height="720" fill="url(#bg-gradient)"/>
    <g opacity="0.1" stroke="#94A3B8" stroke-width="1">
        <line x1="0" y1="180" x2="1280" y2="180"/>
        <line x1="0" y1="360" x2="1280" y2="360"/>
        <line x1="0" y1="540" x2="1280" y2="540"/>
        <line x1="320" y1="0" x2="320" y2="720"/>
        <line x1="640" y1="0" x2="640" y2="720"/>
        <line x1="960" y1="0" x2="960" y2="720"/>
    </g>
    <rect x="80" y="50" width="200" height="40" rx="20" fill="#3B82F6" opacity="0.9"/>
    <text x="180" y="76" font-family="SF Pro Display, PingFang SC, sans-serif" font-size="16" fill="white" text-anchor="middle" font-weight="600">智慧银行实验教程</text>
    <text x="120" y="145" font-family="SF Pro Display, PingFang SC, sans-serif" font-size="36" fill="#F1F5F9" font-weight="700">Skill体系设计原理</text>
    <rect x="120" y="170" width="200" height="4" rx="2" fill="url(#accent-gradient)"/>
    <text x="120" y="210" font-family="SF Pro Text, PingFang SC, sans-serif" font-size="20" fill="#94A3B8">从专家系统到AI Skill的知识工程演进</text>
    <g transform="translate(120, 250)">
        <g transform="translate(0, 0)">
            <rect x="0" y="0" width="330" height="160" rx="12" fill="#334155" opacity="0.9"/>
            <text x="20" y="35" font-family="SF Pro Display, PingFang SC, sans-serif" font-size="20" fill="#3B82F6" font-weight="600">专家系统 (1980s)</text>
            <text x="20" y="65" font-family="SF Pro Text, PingFang SC, sans-serif" font-size="16" fill="#F1F5F9">IF-THEN规则编码</text>
            <text x="20" y="90" font-family="SF Pro Text, PingFang SC, sans-serif" font-size="14" fill="#94A3B8">• 知识获取瓶颈</text>
            <text x="20" y="115" font-family="SF Pro Text, PingFang SC, sans-serif" font-size="14" fill="#94A3B8">• 规则维护成本高</text>
            <text x="20" y="140" font-family="SF Pro Text, PingFang SC, sans-serif" font-size="14" fill="#94A3B8">• 可解释性强</text>
        </g>
        <g transform="translate(350, 0)">
            <rect x="0" y="0" width="330" height="160" rx="12" fill="#334155" opacity="0.9"/>
            <text x="20" y="35" font-family="SF Pro Display, PingFang SC, sans-serif" font-size="20" fill="#10B981" font-weight="600">机器学习 (2010s)</text>
            <text x="20" y="65" font-family="SF Pro Text, PingFang SC, sans-serif" font-size="16" fill="#F1F5F9">数据驱动模型训练</text>
            <text x="20" y="90" font-family="SF Pro Text, PingFang SC, sans-serif" font-size="14" fill="#94A3B8">• 黑箱决策问题</text>
            <text x="20" y="115" font-family="SF Pro Text, PingFang SC, sans-serif" font-size="14" fill="#94A3B8">• 需大量标注数据</text>
            <text x="20" y="140" font-family="SF Pro Text, PingFang SC, sans-serif" font-size="14" fill="#94A3B8">• 模式识别能力强</text>
        </g>
        <g transform="translate(700, 0)">
            <rect x="0" y="0" width="330" height="160" rx="12" fill="#10B981" opacity="0.2" stroke="#10B981" stroke-width="2"/>
            <text x="20" y="35" font-family="SF Pro Display, PingFang SC, sans-serif" font-size="20" fill="#10B981" font-weight="600">AI Skill (2024+)</text>
            <text x="20" y="65" font-family="SF Pro Text, PingFang SC, sans-serif" font-size="16" fill="#F1F5F9">Markdown知识编码</text>
            <text x="20" y="90" font-family="SF Pro Text, PingFang SC, sans-serif" font-size="14" fill="#10B981">• 人机协作知识</text>
            <text x="20" y="115" font-family="SF Pro Text, PingFang SC, sans-serif" font-size="14" fill="#10B981">• 高可解释性</text>
            <text x="20" y="140" font-family="SF Pro Text, PingFang SC, sans-serif" font-size="14" fill="#10B981">• 灵活适应性强</text>
        </g>
    </g>
    <g transform="translate(120, 440)">
        <rect x="0" y="0" width="500" height="200" rx="12" fill="#0F172A" opacity="0.8"/>
        <text x="20" y="35" font-family="SF Pro Display, PingFang SC, sans-serif" font-size="22" fill="#F1F5F9" font-weight="600">SKILL.md核心结构</text>
        <rect x="20" y="50" width="460" height="3" rx="1" fill="url(#accent-gradient)"/>
        <g transform="translate(20, 70)">
            <rect x="0" y="0" width="140" height="50" rx="6" fill="#3B82F6" opacity="0.8"/>
            <text x="70" y="30" font-family="SF Pro Text, PingFang SC, sans-serif" font-size="14" fill="white" text-anchor="middle">name/description</text>
        </g>
        <g transform="translate(170, 70)">
            <rect x="0" y="0" width="140" height="50" rx="6" fill="#10B981" opacity="0.8"/>
            <text x="70" y="30" font-family="SF Pro Text, PingFang SC, sans-serif" font-size="14" fill="white" text-anchor="middle">When to Use</text>
        </g>
        <g transform="translate(320, 70)">
            <rect x="0" y="0" width="140" height="50" rx="6" fill="#F59E0B" opacity="0.8"/>
            <text x="70" y="30" font-family="SF Pro Text, PingFang SC, sans-serif" font-size="14" fill="white" text-anchor="middle">Instructions</text>
        </g>
        <g transform="translate(20, 130)">
            <rect x="0" y="0" width="140" height="50" rx="6" fill="#8B5CF6" opacity="0.8"/>
            <text x="70" y="30" font-family="SF Pro Text, PingFang SC, sans-serif" font-size="14" fill="white" text-anchor="middle">Examples</text>
        </g>
        <g transform="translate(170, 130)">
            <rect x="0" y="0" width="140" height="50" rx="6" fill="#EC4899" opacity="0.8"/>
            <text x="70" y="30" font-family="SF Pro Text, PingFang SC, sans-serif" font-size="14" fill="white" text-anchor="middle">Requirements</text>
        </g>
        <g transform="translate(320, 130)">
            <rect x="0" y="0" width="140" height="50" rx="6" fill="#EF4444" opacity="0.8"/>
            <text x="70" y="30" font-family="SF Pro Text, PingFang SC, sans-serif" font-size="14" fill="white" text-anchor="middle">Best Practices</text>
        </g>
    </g>
    <g transform="translate(660, 440)">
        <rect x="0" y="0" width="490" height="200" rx="12" fill="#0F172A" opacity="0.8"/>
        <text x="20" y="35" font-family="SF Pro Display, PingFang SC, sans-serif" font-size="22" fill="#F1F5F9" font-weight="600">MCP vs Skill</text>
        <rect x="20" y="50" width="450" height="3" rx="1" fill="url(#accent-gradient)"/>
        <g transform="translate(20, 70)">
            <rect x="0" y="0" width="210" height="110" rx="8" fill="#3B82F6" opacity="0.15" stroke="#3B82F6" stroke-width="1"/>
            <text x="105" y="25" font-family="SF Pro Display, PingFang SC, sans-serif" font-size="16" fill="#3B82F6" text-anchor="middle" font-weight="600">MCP协议</text>
            <text x="105" y="50" font-family="SF Pro Text, PingFang SC, sans-serif" font-size="14" fill="#F1F5F9" text-anchor="middle">连接外部数据源</text>
            <text x="105" y="72" font-family="SF Pro Text, PingFang SC, sans-serif" font-size="14" fill="#F1F5F9" text-anchor="middle">标准化工具接口</text>
            <text x="105" y="94" font-family="SF Pro Text, PingFang SC, sans-serif" font-size="14" fill="#94A3B8" text-anchor="middle">解决"能做什么"</text>
        </g>
        <g transform="translate(240, 70)">
            <rect x="0" y="0" width="210" height="110" rx="8" fill="#10B981" opacity="0.15" stroke="#10B981" stroke-width="1"/>
            <text x="105" y="25" font-family="SF Pro Display, PingFang SC, sans-serif" font-size="16" fill="#10B981" text-anchor="middle" font-weight="600">Skill体系</text>
            <text x="105" y="50" font-family="SF Pro Text, PingFang SC, sans-serif" font-size="14" fill="#F1F5F9" text-anchor="middle">编码领域知识</text>
            <text x="105" y="72" font-family="SF Pro Text, PingFang SC, sans-serif" font-size="14" fill="#F1F5F9" text-anchor="middle">指导AI执行任务</text>
            <text x="105" y="94" font-family="SF Pro Text, PingFang SC, sans-serif" font-size="14" fill="#94A3B8" text-anchor="middle">解决"怎么做"</text>
        </g>
    </g>
    <rect x="0" y="680" width="1280" height="40" fill="#0F172A" opacity="0.8"/>
    <text x="40" y="706" font-family="SF Pro Text, PingFang SC, sans-serif" font-size="14" fill="#94A3B8">SmartBank Agent · 智慧银行实验教程</text>
    <text x="1240" y="706" font-family="SF Pro Text, sans-serif" font-size="14" fill="#94A3B8" text-anchor="end">第 4 章 / 共 8 章</text>
    <g transform="translate(1200, 680)">
        <rect x="0" y="0" width="60" height="30" rx="4" fill="#334155"/>
        <text x="30" y="20" font-family="SF Pro Text, sans-serif" font-size="10" fill="#94A3B8" text-anchor="middle">🎤 Notes</text>
    </g>
</svg>
